# xmcd
#
# Track frame offsets: 
#        150
#        11550
#        23775
#        40950
#        54150
#        66975
#        82650
#        96900
#        107550
#        126750
#        143175
#        157125
#        171600
#        185025
#        199425
#        215550
#        227700
#        239475
#        252450
#        265200
#        279450
#        298125
#        308250
#
# Disc length: 4324 seconds
#
# Revision: 1
# Processed by: cddbd v1.5.2PL0 Copyright (c) Steve Scherf et al.
# Submitted via: ExactAudioCopy v1.3
#
DISCID=5810e217
DTITLE=Lustīgais Blūmīzers - Atnāc tu uz manām trepēm...
DYEAR=2013
DGENRE=Latvian
TTITLE0=Pietura
TTITLE1=Saules pusē
TTITLE2=Madaras
TTITLE3=Burvis
TTITLE4=Bez steigas
TTITLE5=Šis mirklis nemelo
TTITLE6=Atnāc Tu uz manām trepēm
TTITLE7=Es gaidu, kad Tu nāc
TTITLE8=Jūra un vējš
TTITLE9=Bet Tu tikai klusē
TTITLE10=Es nebaidos iet
TTITLE11=Starp pienenēm pļavā
TTITLE12=Drīz es nākšu atpakaļ
TTITLE13=Es nelieku Tev...
TTITLE14=Tavās rokās mana dvēselīte sēž
TTITLE15=Rudens lapu laime
TTITLE16=Kad kritīs zvaigzne manējā
TTITLE17=Gaidu ziemu
TTITLE18=Ziemā kājas slīd uz priekšu
TTITLE19=Vēl vienu reiz
TTITLE20=Sakārtots ir viss
TTITLE21=Miega dziesmiņa
TTITLE22=Rāmis
EXTD=
EXTT0=
EXTT1=
EXTT2=
EXTT3=
EXTT4=
EXTT5=
EXTT6=
EXTT7=
EXTT8=
EXTT9=
EXTT10=
EXTT11=
EXTT12=
EXTT13=
EXTT14=
EXTT15=
EXTT16=
EXTT17=
EXTT18=
EXTT19=
EXTT20=
EXTT21=
EXTT22=
PLAYORDER=
